<?xml version="1.0" standalone="no"?>
<!DOCTYPE svg PUBLIC "-//W3C//DTD SVG 20010904//EN"
 "http://www.w3.org/TR/2001/REC-SVG-20010904/DTD/svg10.dtd">
<svg version="1.0" xmlns="http://www.w3.org/2000/svg"
 width="1366.000000pt" height="1366.000000pt" viewBox="0 0 1366.000000 1366.000000"
 preserveAspectRatio="xMidYMid meet">
<metadata>
Created by potrace 1.11, written by Peter Selinger 2001-2013
</metadata>
<g transform="translate(0.000000,1366.000000) scale(0.100000,-0.100000)"
fill="#000000" stroke="none">
<path d="M6780 9204 l0 -364 173 2 172 3 0 67 c0 72 2 70 -57 70 l-28 1 0 169
0 170 33 -7 c17 -4 61 -16 97 -26 36 -11 76 -23 90 -27 l25 -7 0 -208 0 -208
130 3 130 3 0 205 0 205 110 32 c61 18 115 33 122 33 8 0 11 -45 10 -167 l-2
-168 -37 1 c-44 1 -46 -5 -46 -88 l0 -58 174 0 174 0 0 366 c0 343 -1 365 -17
360 -10 -3 -54 -16 -98 -30 -44 -13 -111 -33 -150 -45 -38 -11 -137 -40 -219
-65 l-148 -44 -237 70 c-277 82 -325 96 -368 107 l-33 9 0 -364z"/>
<path d="M4360 9190 l0 -350 130 0 130 0 0 109 c0 61 4 112 9 115 4 3 26 8 47
11 132 19 111 26 225 -76 41 -37 98 -87 127 -113 l53 -46 180 0 180 0 -53 46
c-48 42 -102 90 -245 220 l-45 40 138 23 c77 13 145 24 152 24 9 0 12 42 12
174 l0 173 -520 0 -520 0 0 -350z m776 162 c2 -49 19 -41 -166 -72 -69 -11
-136 -22 -150 -25 -13 -3 -42 -7 -65 -11 -22 -3 -59 -9 -82 -13 -23 -5 -45 -6
-48 -3 -3 3 -5 42 -5 87 l0 82 258 -1 257 -1 1 -43z"/>
<path d="M5560 9190 l0 -350 520 0 520 0 0 350 0 350 -520 0 -520 0 0 -350z
m776 -1 l1 -205 -258 -1 -259 0 0 207 0 207 258 -1 257 -1 1 -206z"/>
<path d="M8270 9470 c0 -77 -4 -74 78 -71 23 1 42 -1 42 -4 0 -6 -71 -170
-152 -355 -30 -66 -44 -99 -67 -153 l-21 -48 137 3 137 3 36 85 36 85 214 0
214 0 37 -85 36 -85 137 -3 136 -3 -26 58 c-14 32 -82 190 -152 351 l-127 292
-347 0 -348 0 0 -70z m487 -83 c5 -7 25 -48 44 -92 18 -44 39 -91 46 -105 l13
-25 -75 -3 c-41 -2 -108 -2 -149 0 l-75 3 51 115 51 115 42 2 c24 1 47 -3 52
-10z"/>
<path d="M5507 8614 c-1 -1 -24 -4 -52 -8 -92 -11 -163 -29 -230 -57 -16 -6
-36 -13 -44 -15 -8 -1 -18 -9 -22 -16 -5 -7 -9 -9 -9 -5 0 9 -83 -34 -88 -45
-2 -5 -8 -8 -13 -8 -6 0 -15 -5 -22 -10 -7 -6 -29 -23 -50 -40 -142 -109 -243
-250 -302 -425 -22 -67 -27 -100 -30 -235 -3 -170 34 -298 131 -451 23 -37 52
-73 63 -81 12 -8 19 -17 16 -20 -5 -4 53 -61 112 -108 39 -33 112 -80 122 -80
6 0 11 -4 11 -10 0 -5 6 -10 13 -11 6 0 36 -12 65 -27 l52 -27 5 -165 c2 -91
6 -178 9 -195 3 -16 8 -49 10 -72 3 -24 7 -47 10 -52 4 -5 8 -22 11 -38 5 -32
13 -68 15 -68 1 0 4 -13 6 -30 3 -16 9 -35 15 -41 5 -6 6 -14 2 -17 -3 -4 -1
-7 6 -7 7 0 9 -5 6 -10 -4 -6 5 -35 18 -64 14 -30 23 -57 19 -60 -3 -3 0 -6 7
-6 7 0 10 -4 6 -9 -3 -5 2 -17 11 -25 8 -9 13 -16 9 -16 -14 0 96 -190 172
-300 37 -52 142 -169 192 -214 19 -17 48 -44 65 -59 17 -15 43 -35 59 -44 15
-10 27 -21 27 -25 0 -4 7 -8 15 -8 8 0 15 -3 15 -8 0 -4 26 -23 58 -41 31 -19
59 -38 62 -42 3 -4 14 -9 25 -11 11 -1 23 -7 27 -13 4 -5 11 -10 15 -10 4 -1
33 -13 63 -27 66 -30 236 -86 288 -94 20 -3 44 -7 52 -9 88 -24 406 -24 490 0
8 2 29 7 45 10 59 10 73 14 165 45 97 32 289 124 302 144 4 6 8 7 8 1 0 -5 6
-3 13 5 7 8 24 21 40 29 15 8 42 27 59 43 17 15 35 28 38 28 9 0 200 188 234
230 40 50 110 149 135 190 26 43 122 235 138 275 11 30 36 105 38 115 0 3 6
21 13 40 12 35 40 164 47 210 1 14 6 50 10 80 5 30 8 117 9 193 l1 138 81 39
c139 65 267 165 344 268 14 18 33 42 42 54 10 11 15 25 12 29 -3 5 -1 9 3 9 8
0 44 54 43 65 0 3 6 18 13 33 16 30 35 85 43 123 20 95 22 125 19 214 -4 131
-23 236 -45 250 -5 3 -7 12 -4 19 3 8 0 17 -5 21 -6 3 -9 10 -7 14 3 4 -2 17
-12 27 -9 11 -18 26 -20 34 -6 28 -86 139 -96 133 -5 -3 -6 -1 -3 4 15 24
-170 178 -282 236 -86 45 -216 87 -319 103 -111 17 -351 1 -404 -27 -10 -5
-18 -7 -18 -5 0 8 -122 -40 -186 -74 -80 -42 -98 -53 -107 -67 -4 -7 -15 -13
-22 -13 -8 0 -15 -3 -15 -7 0 -5 -12 -16 -26 -26 -25 -18 -26 -18 -77 2 -29
12 -62 23 -74 26 -56 12 -66 14 -83 20 -106 34 -332 49 -490 33 -95 -10 -216
-36 -298 -63 -7 -3 -16 -5 -20 -6 -4 -1 -21 -8 -38 -15 -29 -12 -32 -11 -75
26 -24 22 -49 39 -56 40 -6 0 -13 4 -15 8 -4 10 -189 101 -215 107 -10 2 -45
11 -78 19 -33 9 -78 18 -100 22 -39 5 -213 12 -218 8z m612 -1544 c143 -143
261 -265 261 -271 0 -24 -98 -104 -169 -137 -70 -34 -83 -36 -178 -38 -154 -3
-247 31 -341 126 -71 71 -103 145 -102 240 0 46 1 53 15 105 18 67 126 192
176 203 7 2 16 7 19 12 4 6 24 14 51 19 4 0 124 -116 268 -259z m1649 236
c185 -94 258 -305 166 -476 -41 -74 -154 -167 -229 -186 -5 -2 -21 -6 -35 -10
-42 -11 -184 -13 -229 -3 -49 11 -149 56 -169 76 -7 7 -18 16 -25 20 -7 5 -25
23 -42 41 l-29 33 264 264 c146 146 268 265 273 265 4 0 29 -11 55 -24z m-903
-830 c68 -4 83 -7 174 -27 68 -15 191 -66 241 -99 25 -16 48 -30 53 -30 4 0
15 -8 25 -17 10 -10 39 -37 65 -61 26 -23 47 -46 47 -51 0 -5 7 -14 15 -21 20
-16 59 -88 80 -146 24 -66 28 -200 8 -267 -24 -82 -81 -183 -129 -227 -24 -22
-44 -44 -44 -48 -1 -8 -96 -71 -162 -106 -51 -27 -173 -71 -223 -81 -100 -20
-143 -23 -255 -20 -136 4 -184 10 -245 31 -22 7 -46 14 -53 14 -24 0 -185 82
-238 120 -53 40 -167 161 -166 176 0 5 -5 16 -12 24 -13 15 -44 88 -53 125
-10 42 -11 163 -2 206 24 112 121 260 209 319 12 8 28 20 34 25 85 72 299 147
461 162 33 2 61 6 63 8 2 1 11 1 20 -1 9 -2 49 -5 87 -8z"/>
<path d="M6005 6995 c-164 -77 -115 -318 65 -317 172 2 227 231 75 309 -40 22
-104 25 -140 8z"/>
<path d="M7405 6979 c-95 -60 -101 -196 -12 -270 21 -18 54 -28 102 -34 34 -3
95 27 130 64 26 28 29 38 30 99 0 80 -24 120 -91 152 -54 27 -105 23 -159 -11z"/>
<path d="M6654 6449 c-92 -17 -195 -88 -240 -165 -75 -128 -20 -279 135 -365
135 -75 344 -72 479 7 66 39 90 62 125 124 58 101 37 213 -56 302 -80 76 -178
110 -312 107 -49 -2 -109 -6 -131 -10z"/>
<path d="M4410 4520 l0 -350 130 0 130 0 0 110 c0 118 -1 115 55 125 88 15
122 16 136 3 8 -7 53 -47 99 -88 47 -41 103 -92 125 -112 l40 -38 183 0 183 0
-48 41 c-26 23 -50 45 -53 48 -3 3 -58 53 -123 110 -65 57 -116 105 -115 106
2 2 23 6 48 9 25 4 90 15 145 24 l100 17 3 173 2 172 -520 0 -520 0 0 -350z
m778 163 c1 -46 1 -46 -73 -57 -16 -2 -86 -14 -155 -26 -151 -25 -165 -28
-214 -35 -21 -4 -47 -8 -57 -10 -17 -4 -19 4 -19 84 l0 88 259 0 259 0 0 -44z"/>
<path d="M5530 4800 l0 -70 33 -1 c17 0 51 0 75 1 l42 2 0 -281 0 -281 518 0
519 0 0 111 -1 111 -65 -7 c-36 -3 -93 -9 -126 -11 -62 -6 -76 -14 -68 -44 4
-16 -13 -17 -256 -18 l-261 -1 0 46 c0 26 3 44 6 41 3 -3 20 -2 37 2 18 5 57
12 87 15 30 4 57 8 60 10 3 2 26 6 50 9 25 4 59 9 75 13 17 4 37 7 45 8 26 4
95 15 120 20 14 3 41 7 60 10 19 3 46 7 60 10 13 2 40 7 60 10 19 4 53 9 75
13 l40 7 0 170 0 170 -592 3 -593 2 0 -70z m926 -117 c2 -46 0 -47 -71 -58
-22 -3 -65 -10 -95 -15 -30 -5 -72 -12 -94 -16 -21 -3 -48 -8 -60 -10 -23 -4
-63 -11 -111 -19 -16 -2 -42 -7 -57 -11 l-28 -6 0 90 0 89 258 -1 257 -1 1
-42z"/>
<path d="M6900 4696 l0 -174 43 -7 c23 -4 49 -9 57 -10 8 -2 51 -8 95 -15 44
-7 87 -14 97 -15 9 -2 38 -7 65 -11 26 -3 57 -8 68 -10 11 -3 38 -7 60 -9 22
-3 92 -14 156 -25 64 -11 119 -20 122 -20 2 0 4 -19 3 -42 l-1 -43 -252 -2
-253 -2 0 24 c0 29 3 28 -157 50 -21 3 -53 8 -70 11 l-33 5 0 -116 0 -115 513
0 514 0 0 169 1 170 -51 10 c-29 6 -68 13 -87 15 -44 6 -100 15 -170 26 -30 5
-68 12 -85 14 -16 3 -61 10 -100 16 -38 5 -80 12 -91 14 -22 5 -54 10 -137 21
l-48 7 3 47 3 46 253 1 252 1 0 -32 c0 -18 5 -32 13 -32 12 0 52 -6 162 -23
33 -6 65 -10 71 -10 7 0 12 40 13 120 l1 120 -515 0 -515 0 0 -174z"/>
<path d="M8020 4800 c0 -79 -11 -71 103 -72 l47 -1 0 -278 0 -279 130 0 130 0
0 140 0 140 258 0 258 0 -1 -140 -1 -140 132 0 132 0 0 350 -1 351 -131 -3
-131 -3 0 -135 0 -135 -258 -2 -257 -2 0 139 0 140 -205 0 -205 0 0 -70z"/>
<path d="M6576 3902 c-3 -5 1 -9 9 -9 8 0 12 4 9 9 -3 4 -7 8 -9 8 -2 0 -6 -4
-9 -8z"/>
<path d="M6735 3900 c-3 -5 -3 -10 2 -10 4 0 1 -4 -7 -10 -9 -6 -17 -5 -21 1
-3 6 -11 -3 -17 -19 -9 -25 -8 -30 3 -26 8 3 11 13 8 21 -4 9 -2 14 3 10 14
-8 37 8 40 27 3 18 -2 21 -11 6z"/>
<path d="M6870 3896 c14 -18 13 -19 -5 -12 -16 6 -18 5 -7 -5 8 -9 15 -10 22
-3 8 8 5 15 -7 25 -17 13 -17 13 -3 -5z"/>
<path d="M7166 3901 c-3 -4 6 -7 19 -7 14 0 22 2 19 5 -8 8 -34 10 -38 2z"/>
<path d="M7320 3900 c-9 -6 -10 -10 -3 -10 6 0 15 5 18 10 8 12 4 12 -15 0z"/>
<path d="M7595 3900 c3 -5 8 -10 11 -10 2 0 4 5 4 10 0 6 -5 10 -11 10 -5 0
-7 -4 -4 -10z"/>
<path d="M4973 3885 c0 -8 4 -12 9 -9 5 3 6 10 3 15 -9 13 -12 11 -12 -6z"/>
<path d="M6797 3893 c-10 -9 -9 -23 1 -23 5 0 9 7 9 15 0 17 -1 18 -10 8z"/>
<path d="M5187 3879 c7 -7 15 -10 18 -7 3 3 -2 9 -12 12 -14 6 -15 5 -6 -5z"/>
<path d="M5513 3875 c0 -7 6 -11 14 -8 7 3 13 6 13 8 0 2 -6 5 -13 8 -8 3 -14
-1 -14 -8z"/>
<path d="M5555 3880 c-3 -5 -1 -10 4 -10 6 0 11 5 11 10 0 6 -2 10 -4 10 -3 0
-8 -4 -11 -10z"/>
<path d="M5729 3869 c-12 -24 3 -50 16 -28 5 8 4 10 -3 5 -15 -9 -15 -1 -2 25
6 10 8 19 6 19 -3 0 -10 -9 -17 -21z"/>
<path d="M5805 3880 c-3 -6 1 -7 9 -4 18 7 21 14 7 14 -6 0 -13 -4 -16 -10z"/>
<path d="M6014 3876 c1 -8 7 -21 14 -29 10 -12 10 -16 0 -20 -9 -4 -9 -6 -1
-6 19 -1 24 16 8 29 -7 6 -11 18 -8 26 3 8 1 14 -5 14 -6 0 -9 -6 -8 -14z"/>
<path d="M6060 3876 c7 -7 13 -7 20 0 6 6 3 10 -10 10 -13 0 -16 -4 -10 -10z"/>
<path d="M6097 3877 c-8 -22 18 -47 44 -42 24 5 49 30 49 49 0 6 -6 2 -12 -9
-6 -11 -16 -23 -22 -27 -13 -9 -30 18 -20 34 4 7 3 8 -5 4 -7 -5 -9 -16 -5
-29 6 -19 5 -20 -9 -9 -9 8 -13 20 -10 28 3 8 3 14 0 14 -3 0 -7 -6 -10 -13z"/>
<path d="M6475 3880 c3 -5 8 -10 11 -10 2 0 4 5 4 10 0 6 -5 10 -11 10 -5 0
-7 -4 -4 -10z"/>
<path d="M6605 3879 c-4 -6 -5 -12 -2 -15 2 -3 7 2 10 11 7 17 1 20 -8 4z"/>
<path d="M6668 3868 c2 -10 6 -18 7 -18 1 0 5 8 7 18 3 11 0 19 -7 19 -7 0
-10 -8 -7 -19z"/>
<path d="M6745 3864 c-16 -15 -24 -23 -17 -19 7 4 19 1 27 -5 8 -7 16 -9 16
-4 3 19 6 54 5 54 0 -1 -14 -12 -31 -26z m25 -4 c0 -5 -5 -10 -11 -10 -5 0 -7
5 -4 10 3 6 8 10 11 10 2 0 4 -4 4 -10z"/>
<path d="M7021 3872 c11 -17 69 -59 69 -49 0 2 -18 18 -41 36 -26 22 -36 26
-28 13z"/>
<path d="M7080 3880 c0 -5 -8 -6 -17 -3 -10 4 -3 -6 15 -21 26 -23 35 -26 47
-16 12 10 18 10 32 -1 11 -10 14 -10 9 -1 -6 11 4 17 26 13 4 0 5 6 2 14 -4 8
-10 15 -16 15 -5 0 -7 -4 -4 -9 10 -15 -17 -19 -43 -7 -19 8 -25 8 -29 -2 -2
-7 -8 -10 -12 -7 -5 3 -7 12 -3 20 3 8 2 15 -1 15 -3 0 -6 -4 -6 -10z m45 -30
c-3 -5 -11 -10 -16 -10 -6 0 -7 5 -4 10 3 6 11 10 16 10 6 0 7 -4 4 -10z"/>
<path d="M7137 3879 c7 -7 15 -10 18 -7 3 3 -2 9 -12 12 -14 6 -15 5 -6 -5z"/>
<path d="M7275 3880 c3 -5 8 -10 11 -10 2 0 4 5 4 10 0 6 -5 10 -11 10 -5 0
-7 -4 -4 -10z"/>
<path d="M7414 3882 c2 -4 -2 -16 -10 -26 -12 -17 -14 -17 -20 -3 -3 10 -16
17 -28 16 -21 0 -21 0 2 -9 31 -13 28 -20 -8 -17 -20 1 -32 9 -36 21 -6 18 -7
18 -16 2 -6 -11 -14 -14 -21 -8 -23 17 -57 11 -68 -11 -9 -20 -9 -20 4 -4 16
20 32 23 21 5 -6 -10 -4 -10 7 0 18 17 34 15 19 -3 -9 -10 -9 -15 -1 -15 6 0
11 5 11 11 0 8 6 7 17 -2 10 -8 14 -9 10 -2 -4 6 -3 14 2 17 14 9 21 -20 8
-35 -9 -9 -7 -9 6 1 11 8 35 14 54 13 21 0 37 5 40 14 4 10 9 11 19 2 8 -7 19
-7 30 -1 15 8 15 9 0 15 -11 5 -15 3 -10 -4 4 -7 1 -10 -7 -7 -8 3 -13 12 -11
22 2 9 -2 16 -8 16 -6 0 -9 -3 -6 -8z"/>
<path d="M7458 3878 c5 -5 16 -8 23 -6 8 3 3 7 -10 11 -17 4 -21 3 -13 -5z"/>
<path d="M7668 3872 c9 -10 19 -17 21 -16 6 5 -20 34 -30 34 -5 0 -1 -8 9 -18z"/>
<path d="M7725 3880 c-3 -6 1 -7 9 -4 18 7 21 14 7 14 -6 0 -13 -4 -16 -10z"/>
<path d="M7870 3880 c-13 -8 -12 -10 3 -10 9 0 17 5 17 10 0 12 -1 12 -20 0z"/>
<path d="M8033 3870 c-1 -11 2 -20 7 -20 4 0 7 7 6 15 -3 23 -12 26 -13 5z"/>
<path d="M4549 3863 c-13 -16 -12 -17 4 -4 16 13 21 21 13 21 -2 0 -10 -8 -17
-17z"/>
<path d="M5594 3869 c-3 -6 -2 -15 3 -20 5 -5 9 -1 9 11 0 23 -2 24 -12 9z"/>
<path d="M5850 3874 c0 -2 9 -8 20 -14 11 -6 20 -7 20 -2 0 6 -9 12 -20 15
-11 3 -20 3 -20 1z"/>
<path d="M5908 3873 c6 -2 18 -2 25 0 6 3 1 5 -13 5 -14 0 -19 -2 -12 -5z"/>
<path d="M5982 3860 c0 -14 2 -19 5 -12 2 6 2 18 0 25 -3 6 -5 1 -5 -13z"/>
<path d="M6206 3863 c2 -7 -1 -13 -6 -13 -6 0 -10 -4 -10 -10 0 -17 14 -11 28
11 8 12 9 18 4 15 -6 -3 -12 -3 -15 1 -2 5 -2 2 -1 -4z"/>
<path d="M6290 3873 c0 -7 -11 -10 -27 -7 -19 3 -23 1 -15 -4 8 -5 13 -13 12
-18 -3 -16 20 -16 26 0 5 12 10 14 19 6 9 -8 15 -8 20 0 3 5 11 10 17 10 7 0
6 -6 -2 -15 -9 -10 -9 -15 -1 -15 6 0 11 5 11 11 0 5 5 7 12 3 7 -4 8 -3 4 4
-4 7 -2 12 4 12 6 0 13 -7 16 -15 4 -8 11 -12 17 -8 7 4 8 0 3 -13 -6 -16 -5
-17 6 -6 11 11 9 16 -12 32 -13 10 -31 18 -40 18 -8 0 -24 3 -35 7 -14 5 -16
4 -6 -3 8 -6 10 -12 3 -16 -6 -4 -15 2 -21 11 -6 10 -11 13 -11 6z m-10 -23
c0 -5 -5 -10 -11 -10 -5 0 -7 5 -4 10 3 6 8 10 11 10 2 0 4 -4 4 -10z"/>
<path d="M6411 3875 c0 -5 6 -18 13 -27 11 -16 15 -16 32 -3 16 13 17 16 4 25
-24 15 -36 12 -14 -5 17 -13 17 -14 2 -15 -9 0 -22 8 -27 18 -6 9 -10 13 -10
7z"/>
<path d="M6504 3860 c1 -9 12 -15 27 -15 23 -1 25 1 15 17 -9 16 -12 16 -14 3
-4 -18 -19 -20 -25 -2 -2 7 -3 6 -3 -3z"/>
<path d="M6556 3869 c3 -5 10 -7 15 -4 12 8 11 -2 -2 -27 -9 -16 -8 -19 3 -12
21 14 38 13 38 -1 0 -8 4 -17 10 -20 6 -4 7 2 1 17 -4 13 -12 22 -17 20 -4 -2
-11 4 -14 14 -4 9 -14 18 -23 20 -10 1 -15 -2 -11 -7z"/>
<path d="M6895 3866 c-21 -14 -26 -16 -50 -16 -8 0 -15 -5 -15 -10 0 -7 8 -6
23 1 26 15 27 15 39 -3 7 -10 8 -9 4 5 -7 21 8 22 26 3 11 -12 15 -12 31 1 9
9 17 11 17 5 0 -6 -4 -14 -10 -17 -5 -3 -10 -10 -10 -16 0 -5 8 -1 18 9 11 9
17 20 15 25 -9 16 17 6 26 -10 6 -10 10 -13 11 -8 0 19 -16 34 -35 33 -11 0
-29 3 -40 7 -16 5 -17 5 -5 -4 8 -5 12 -13 9 -16 -9 -9 -40 6 -33 16 7 13 2
11 -21 -5z"/>
<path d="M7501 3862 c-1 -13 -5 -21 -10 -17 -6 3 -15 -5 -21 -17 -10 -21 -10
-21 3 -6 8 10 17 15 20 11 9 -8 20 23 14 39 -3 7 -6 3 -6 -10z"/>
<path d="M7534 3855 c1 -21 31 -23 51 -4 6 7 0 6 -17 0 -22 -8 -27 -7 -31 7
-3 12 -4 11 -3 -3z"/>
<path d="M7600 3865 c14 -7 24 -17 22 -21 -1 -4 5 -9 15 -10 13 -2 11 4 -10
22 -15 13 -33 24 -40 24 -7 -1 -1 -7 13 -15z"/>
<path d="M7642 3864 c10 -10 20 -16 22 -13 3 3 -5 11 -17 18 -21 13 -21 12 -5
-5z"/>
<path d="M7909 3863 c-13 -16 -12 -17 4 -4 9 7 17 15 17 17 0 8 -8 3 -21 -13z"/>
<path d="M8119 3878 c-4 -12 -5 -57 0 -53 6 6 10 55 4 55 -1 0 -3 -1 -4 -2z"/>
<path d="M8415 3869 c-4 -6 -5 -12 -2 -15 2 -3 7 2 10 11 7 17 1 20 -8 4z"/>
<path d="M4870 3861 c0 -6 4 -13 10 -16 6 -3 7 1 4 9 -7 18 -14 21 -14 7z"/>
<path d="M5020 3866 c0 -2 8 -10 18 -17 15 -13 16 -12 3 4 -13 16 -21 21 -21
13z"/>
<path d="M5295 3860 c-2 -3 5 -7 16 -7 10 -1 19 2 19 6 0 9 -29 10 -35 1z"/>
<path d="M5379 3853 c-13 -17 -13 -17 6 -3 11 8 22 16 24 17 2 2 0 3 -6 3 -6
0 -17 -8 -24 -17z"/>
<path d="M5620 3858 c0 -4 7 -8 15 -8 8 0 15 4 15 8 0 5 -7 9 -15 9 -8 0 -15
-4 -15 -9z"/>
<path d="M5791 3853 c7 -12 15 -20 18 -17 3 2 -3 12 -13 22 -17 16 -18 16 -5
-5z"/>
<path d="M5825 3859 c-4 -6 -4 -13 -1 -16 3 -4 6 -1 6 6 0 7 5 9 12 5 7 -4 8
-3 4 4 -9 15 -13 15 -21 1z"/>
<path d="M6040 3866 c0 -3 14 -12 30 -21 17 -9 30 -13 30 -11 0 3 -13 12 -30
21 -16 9 -30 13 -30 11z"/>
<path d="M6627 3852 c1 -8 3 -16 3 -18 0 -2 5 -4 11 -4 5 0 7 5 4 10 -3 6 -1
10 4 10 6 0 11 5 11 11 0 8 -4 8 -14 0 -8 -7 -16 -8 -18 -4 -3 4 -3 2 -1 -5z"/>
<path d="M6796 3845 c-14 -13 -26 -28 -26 -32 0 -4 7 0 14 10 16 20 30 23 23
4 -3 -8 1 -14 8 -14 10 0 11 5 4 19 -8 15 -5 20 13 28 15 5 17 9 7 9 -9 1 -28
-10 -43 -24z"/>
<path d="M7747 3863 c-4 -3 -7 -11 -7 -17 0 -6 5 -4 10 4 8 13 11 12 23 -3 13
-18 13 -18 28 0 13 16 12 17 -2 5 -14 -10 -18 -10 -23 3 -6 16 -18 19 -29 8z"/>
<path d="M7936 3853 c-4 -10 -1 -11 12 -5 9 5 23 7 30 5 6 -3 12 -1 12 4 0 14
-49 10 -54 -4z"/>
<path d="M8179 3853 c-13 -16 -12 -17 4 -4 9 7 17 15 17 17 0 8 -8 3 -21 -13z"/>
<path d="M8266 3858 c3 -5 9 -7 12 -4 3 3 12 0 21 -6 13 -10 14 -10 4 2 -15
16 -46 23 -37 8z"/>
<path d="M8535 3860 c3 -5 8 -10 11 -10 2 0 4 5 4 10 0 6 -5 10 -11 10 -5 0
-7 -4 -4 -10z"/>
<path d="M5153 3845 c0 -8 4 -12 9 -9 5 3 6 10 3 15 -9 13 -12 11 -12 -6z"/>
<path d="M5907 3848 c-12 -10 -14 -17 -6 -28 9 -13 10 -13 6 0 -2 8 3 20 12
27 9 7 13 13 10 13 -3 0 -13 -6 -22 -12z"/>
<path d="M6468 3838 c-10 -10 -14 -18 -9 -18 10 0 36 29 30 34 -2 1 -12 -6
-21 -16z"/>
<path d="M4815 3840 c-3 -5 -1 -10 4 -10 6 0 11 5 11 10 0 6 -2 10 -4 10 -3 0
-8 -4 -11 -10z"/>
<path d="M4935 3840 c-3 -5 -1 -10 4 -10 6 0 11 5 11 10 0 6 -2 10 -4 10 -3 0
-8 -4 -11 -10z"/>
<path d="M5505 3840 c-3 -6 1 -7 9 -4 18 7 21 14 7 14 -6 0 -13 -4 -16 -10z"/>
<path d="M5570 3840 c0 -5 5 -10 11 -10 5 0 7 5 4 10 -3 6 -8 10 -11 10 -2 0
-4 -4 -4 -10z"/>
<path d="M5770 3843 c5 -2 8 -9 5 -13 -3 -5 -1 -11 4 -14 5 -4 8 2 7 11 -2 9
-8 18 -15 19 -6 1 -7 0 -1 -3z"/>
<path d="M5854 3835 c-4 -8 -11 -12 -17 -8 -6 4 -7 1 -2 -7 6 -10 11 -10 20 3
7 9 16 13 20 9 5 -4 5 -1 1 6 -9 16 -15 15 -22 -3z"/>
<path d="M5935 3841 c-3 -5 0 -13 6 -17 8 -5 9 -3 4 6 -6 10 -4 12 8 7 10 -3
17 -2 17 3 0 13 -27 13 -35 1z"/>
<path d="M5986 3822 l-19 -27 24 22 c12 12 21 24 18 27 -2 2 -13 -8 -23 -22z"/>
<path d="M7699 3848 c-6 -21 -5 -37 2 -32 5 3 6 10 3 16 -5 7 -1 9 9 5 10 -3
17 -2 17 3 0 8 -28 15 -31 8z"/>
<path d="M7874 3839 c-12 -20 12 -31 27 -12 13 17 13 17 -5 3 -18 -14 -19 -13
-13 3 7 19 2 23 -9 6z"/>
<path d="M7996 3842 c-3 -4 4 -9 15 -9 23 -2 25 3 4 10 -8 4 -16 3 -19 -1z"/>
<path d="M8058 3838 c-9 -5 -6 -7 9 -5 12 2 25 6 28 8 8 9 -23 6 -37 -3z"/>
<path d="M8350 3838 c0 -4 4 -8 9 -8 6 0 12 4 15 8 3 5 -1 9 -9 9 -8 0 -15 -4
-15 -9z"/>
<path d="M5334 3829 c-3 -6 -2 -15 3 -20 5 -5 9 -1 9 11 0 23 -2 24 -12 9z"/>
<path d="M6910 3825 c0 -8 4 -15 10 -15 5 0 7 7 4 15 -4 8 -8 15 -10 15 -2 0
-4 -7 -4 -15z"/>
<path d="M7027 3827 c-3 -7 3 -13 14 -13 13 0 15 3 7 13 -6 7 -12 13 -13 13
-2 0 -5 -6 -8 -13z"/>
<path d="M7180 3831 c0 -6 4 -13 10 -16 6 -3 7 1 4 9 -7 18 -14 21 -14 7z"/>
<path d="M7590 3831 c0 -5 7 -12 16 -15 14 -5 15 -4 4 9 -14 17 -20 19 -20 6z"/>
<path d="M5416 3818 c3 -4 11 -5 19 -1 21 7 19 12 -4 10 -11 0 -18 -5 -15 -9z"/>
<path d="M5691 3827 c2 -1 13 -9 24 -17 19 -14 19 -14 6 3 -7 9 -18 17 -24 17
-6 0 -8 -1 -6 -3z"/>
<path d="M6056 3813 c-6 -14 -5 -15 5 -6 7 7 10 15 7 18 -3 3 -9 -2 -12 -12z"/>
<path d="M6228 3823 c7 -3 16 -2 19 1 4 3 -2 6 -13 5 -11 0 -14 -3 -6 -6z"/>
<path d="M6290 3819 c0 -5 5 -7 10 -4 6 3 10 8 10 11 0 2 -4 4 -10 4 -5 0 -10
-5 -10 -11z"/>
<path d="M6356 3822 c-2 -4 4 -8 14 -8 10 0 16 4 14 8 -3 4 -9 8 -14 8 -5 0
-11 -4 -14 -8z"/>
<path d="M6486 3822 c-2 -4 4 -8 14 -8 10 0 16 4 14 8 -3 4 -9 8 -14 8 -5 0
-11 -4 -14 -8z"/>
<path d="M6730 3819 c0 -5 5 -7 10 -4 6 3 10 8 10 11 0 2 -4 4 -10 4 -5 0 -10
-5 -10 -11z"/>
<path d="M6975 3820 c-3 -6 1 -7 9 -4 18 7 21 14 7 14 -6 0 -13 -4 -16 -10z"/>
<path d="M7220 3822 c0 -5 7 -9 15 -9 8 0 12 4 9 9 -3 4 -9 8 -15 8 -5 0 -9
-4 -9 -8z"/>
<path d="M7410 3819 c0 -5 5 -7 10 -4 6 3 10 8 10 11 0 2 -4 4 -10 4 -5 0 -10
-5 -10 -11z"/>
<path d="M7510 3826 c0 -2 7 -7 16 -10 8 -3 12 -2 9 4 -6 10 -25 14 -25 6z"/>
<path d="M7750 3819 c0 -5 5 -7 10 -4 6 3 10 8 10 11 0 2 -4 4 -10 4 -5 0 -10
-5 -10 -11z"/>
<path d="M7815 3820 c3 -5 8 -10 11 -10 2 0 4 5 4 10 0 6 -5 10 -11 10 -5 0
-7 -4 -4 -10z"/>
<path d="M6256 3793 c-6 -14 -5 -15 5 -6 7 7 10 15 7 18 -3 3 -9 -2 -12 -12z"/>
<path d="M6665 3800 c-3 -6 1 -7 9 -4 18 7 21 14 7 14 -6 0 -13 -4 -16 -10z"/>
<path d="M6860 3805 c0 -2 6 -8 13 -14 10 -8 14 -7 14 2 0 8 -6 14 -14 14 -7
0 -13 -1 -13 -2z"/>
</g>
</svg>
